# xmcd
#
# Track frame offsets: 
#        150
#        43407
#        57185
#        73752
#        101197
#        133035
#        160292
#        193062
#        231685
#
# Disc length: 3359 seconds
#
# Revision: 0
# Processed by: cddbd v1.5.2PL0 Copyright (c) Steve Scherf et al.
# Submitted via: ExactAudioCopy v0.95b4
#
DISCID=8f0d1d09
DTITLE=Muzsikás & Márta Sebestyén / Morning Star
DYEAR=1997
DGENRE=Folk
TTITLE0=Füzesi lakodalmas (Wedding In Füzes Village)
TTITLE1=Madocsai szõlõ-õrzõ (A Song From Madocsa)
TTITLE2=Kerekes héjsza és sebes (Round Dance of Gyimes)
TTITLE3=Édesanyám rózsafája (My Mother's Rosebush)
TTITLE4=Ej, de széles (Oh, The Road Is Long)
TTITLE5=Ha én rózsa volnék (If I Were A Rose)
TTITLE6=Baj, baj, baj (Trouble, Trouble)
TTITLE7=Gyimesi dallamok (Cry Only On Sundays)
TTITLE8=Ej, csillag, csillag (Oh, Morning Star - Farewell To Soldiers)
EXTD=
EXTT0=
EXTT1=
EXTT2=
EXTT3=
EXTT4=
EXTT5=
EXTT6=
EXTT7=
EXTT8=
PLAYORDER=
.
